# xmcd CD database file
#
# Track frame offsets:
#	150
#	13555
#	54590
#	103654
#	160465
#	213114
#
# Disc length: 3583 seconds
#
# Revision: 1
# Processed by: cddbd v1.5.1PL0 Copyright (c) Steve Scherf et al.
# Submitted via: CDex 1.51
#
DISCID=470dfd06
DTITLE=KVHW - 99-07-30 Disc1
DYEAR=1999
DGENRE=Jazz
TTITLE0=tuning-
TTITLE1=In Time
TTITLE2=Why Cant We All Just Samba
TTITLE3=Nine.RATM.Nine
TTITLE4=If You Only Knew
TTITLE5=Da-Ti-Dah
EXTD=YEAR: 1999
EXTT0=
EXTT1=
EXTT2=
EXTT3=
EXTT4=
EXTT5=
PLAYORDER=
